<svg xmlns="http://www.w3.org/2000/svg" viewBox="0 0 32 32" fill-rule="evenodd" stroke-linejoin="round" stroke-miterlimit="2" xmlns:v="https://vecta.io/nano"><path d="M16 8c4.415 0 8 3.585 8 8s-3.585 8-8 8-8-3.585-8-8 3.585-8 8-8zm0 1c3.863 0 7 3.137 7 7s-3.137 7-7 7-7-3.137-7-7 3.137-7 7-7zm-4 8h8v.75h-3V19a2 2 0 0 1-4 0v-1.25h-1V17zm4 1v1a1 1 0 0 1-2 0v-1h2zm2.5-4.53l-1.149-1.149-.53.53L17.97 14l-1.149 1.149.53.53L18.5 14.53l1.149 1.149.53-.53L19.03 14l1.149-1.149-.53-.53L18.5 13.47zm-5 0l-1.149-1.149-.53.53L12.97 14l-1.149 1.149.53.53L13.5 14.53l1.149 1.149.53-.53L14.03 14l1.149-1.149-.53-.53L13.5 13.47z"/></svg>